# xmcd
#
# Track frame offsets:
#	150
#	18194
#	37436
#	57481
#	83435
#	113862
#	133134
#	153207
#	171219
#	194018
#
# Disc length: 2795 seconds
#
# Revision: 1
# Processed by: cddbd v1.4PL0 Copyright (c) Steve Scherf et al.
# Submitted via: audiograbber 1.81.01
#
DISCID=860ae90a
DTITLE=Ronn upthe Hill - Healed
DYEAR=2002
DGENRE=Blues
TTITLE0=Sweetis Thang
TTITLE1=Every Day I Have The Blues
TTITLE2=Nineteen Years Old
TTITLE3=Your Lovin
TTITLE4=You Are My Sunshine
TTITLE5=Down Home Blues
TTITLE6=You Brought Out the Good Side Of Me
TTITLE7=Where Can I Go To Cry
TTITLE8=Dust My Blues
TTITLE9=Don't Be Skaed and Shame Faceted
EXTD=
EXTT0=
EXTT1=
EXTT2=
EXTT3=
EXTT4=
EXTT5=
EXTT6=
EXTT7=
EXTT8=
EXTT9=
PLAYORDER=
